<svg xmlns="http://www.w3.org/2000/svg" width="680" height="550" viewBox="0 0 680 550" role="img" font-family="'Inter', -apple-system, BlinkMacSystemFont, 'Segoe UI', Roboto, sans-serif">
  <title>Antique Infernal Engine — architecture (adjudication loop)</title>
  <desc>A photo of an antique flows through five cooperating agents. The Reality Badger verifies the math and returns route_to; the orchestrator adjudicates and re-dispatches up to two times back to the Artifact Goblin or Sherlock Ohms. Color encodes which model runs each step: orange frontier Claude, purple local Granite, green Python.</desc>
  <defs>
    <marker id="ar" viewBox="0 0 10 10" refX="8" refY="5" markerWidth="6" markerHeight="6" orient="auto-start-reverse">
      <path d="M2 1L8 5L2 9" fill="none" stroke="#8a6aa8" stroke-width="1.5" stroke-linecap="round" stroke-linejoin="round"/>
    </marker>
    <marker id="arO" viewBox="0 0 10 10" refX="8" refY="5" markerWidth="6" markerHeight="6" orient="auto-start-reverse">
      <path d="M2 1L8 5L2 9" fill="none" stroke="#f5841f" stroke-width="1.5" stroke-linecap="round" stroke-linejoin="round"/>
    </marker>
  </defs>

  <rect x="0.5" y="0.5" width="679" height="549" rx="16" fill="#FBF8F0" stroke="#E2D6EC" stroke-width="1"/>

  <text x="40" y="50" font-size="22" font-weight="700" fill="#4a0873">Antique Infernal Engine</text>
  <rect x="40" y="58" width="176" height="4" rx="2" fill="#e8e52a"/>
  <text x="40" y="80" font-size="13" fill="#6e4a92">therealcat.ai &#183; a TRCL field-guide generator &#183; can this antique run AI?</text>
  <text x="40" y="100" font-size="13" font-style="italic" fill="#3a7a2a">The humor is decorative. The math is structural.</text>
  <line x1="40" y1="116" x2="640" y2="116" stroke="#E2D6EC" stroke-width="1"/>

  <g>
    <rect x="40" y="150" width="130" height="56" rx="8" fill="#F2EEE4" stroke="#4a0873" stroke-width="0.75"/>
    <text x="105" y="172" font-size="14" font-weight="600" fill="#4a0873" text-anchor="middle">Antique photo</text>
    <text x="105" y="190" font-size="12" fill="#6e4a92" text-anchor="middle">fixture or upload</text>
  </g>
  <g>
    <rect x="196" y="150" width="130" height="56" rx="8" fill="#FCE3CE" stroke="#f5841f" stroke-width="0.75"/>
    <text x="261" y="172" font-size="14" font-weight="600" fill="#8a3d00" text-anchor="middle">Artifact goblin</text>
    <text x="261" y="190" font-size="12" fill="#b35a10" text-anchor="middle">sees, guesses path</text>
  </g>
  <g>
    <rect x="352" y="150" width="130" height="56" rx="8" fill="#F2EEE4" stroke="#4a0873" stroke-width="0.75"/>
    <text x="417" y="172" font-size="14" font-weight="600" fill="#4a0873" text-anchor="middle">Sherlock Ohms</text>
    <text x="417" y="190" font-size="12" fill="#6e4a92" text-anchor="middle">mechanism facts</text>
  </g>
  <g>
    <rect x="508" y="150" width="130" height="56" rx="8" fill="#ECE0F5" stroke="#4a0873" stroke-width="0.75"/>
    <text x="573" y="172" font-size="14" font-weight="600" fill="#4a0873" text-anchor="middle">Potato accountant</text>
    <text x="573" y="190" font-size="12" fill="#6e4a92" text-anchor="middle">classifies path</text>
  </g>

  <line x1="170" y1="178" x2="194" y2="178" stroke="#8a6aa8" stroke-width="1.5" marker-end="url(#ar)"/>
  <line x1="326" y1="178" x2="350" y2="178" stroke="#8a6aa8" stroke-width="1.5" marker-end="url(#ar)"/>
  <line x1="482" y1="178" x2="506" y2="178" stroke="#8a6aa8" stroke-width="1.5" marker-end="url(#ar)"/>

  <line x1="573" y1="206" x2="573" y2="278" stroke="#8a6aa8" stroke-width="1.5" marker-end="url(#ar)"/>
  <text x="582" y="246" font-size="11" fill="#6e4a92" text-anchor="start">calls</text>

  <line x1="417" y1="278" x2="417" y2="243" stroke="#f5841f" stroke-width="1.5"/>
  <line x1="261" y1="240" x2="291" y2="240" stroke="#f5841f" stroke-width="1.5" stroke-dasharray="4 3"/>
  <line x1="387" y1="240" x2="417" y2="240" stroke="#f5841f" stroke-width="1.5" stroke-dasharray="4 3"/>
  <line x1="261" y1="240" x2="261" y2="208" stroke="#f5841f" stroke-width="1.5" marker-end="url(#arO)"/>
  <line x1="417" y1="240" x2="417" y2="208" stroke="#f5841f" stroke-width="1.5" marker-end="url(#arO)"/>
  <rect x="291" y="229" width="96" height="22" rx="11" fill="#4a0873"/>
  <text x="339" y="240" font-size="11" font-weight="500" fill="#c7e3b1" text-anchor="middle" dominant-baseline="central">orchestrator</text>
  <text x="255" y="226" font-size="11" fill="#b35a10" text-anchor="end">re-look</text>
  <text x="423" y="226" font-size="11" fill="#b35a10" text-anchor="start">re-research</text>
  <text x="339" y="268" font-size="11" font-weight="500" fill="#f5841f" text-anchor="middle">re-dispatch &#183; max 2 loops</text>

  <g>
    <rect x="40" y="280" width="130" height="56" rx="8" fill="#c7e3b1" stroke="#5bb545" stroke-width="1.5"/>
    <text x="105" y="302" font-size="14" font-weight="600" fill="#4a0873" text-anchor="middle">Field-guide page</text>
    <text x="105" y="320" font-size="12" fill="#3d6b1f" text-anchor="middle">can it run AI? yes</text>
  </g>
  <g>
    <rect x="196" y="280" width="130" height="56" rx="8" fill="#FCE3CE" stroke="#f5841f" stroke-width="0.75"/>
    <text x="261" y="302" font-size="14" font-weight="600" fill="#8a3d00" text-anchor="middle">Page goblin</text>
    <text x="261" y="320" font-size="12" fill="#b35a10" text-anchor="middle">frozen math only</text>
  </g>
  <g>
    <rect x="352" y="280" width="130" height="56" rx="8" fill="#ECE0F5" stroke="#4a0873" stroke-width="0.75"/>
    <text x="417" y="302" font-size="14" font-weight="600" fill="#4a0873" text-anchor="middle">Reality badger</text>
    <text x="417" y="320" font-size="12" fill="#6e4a92" text-anchor="middle">verifies, routes</text>
  </g>
  <g>
    <rect x="508" y="280" width="130" height="56" rx="8" fill="#DCEFCF" stroke="#5bb545" stroke-width="0.75"/>
    <text x="573" y="302" font-size="14" font-weight="600" fill="#2f5a1c" text-anchor="middle">power_calc</text>
    <text x="573" y="320" font-size="12" fill="#4a7a2e" text-anchor="middle">Python, exact</text>
  </g>

  <line x1="508" y1="308" x2="484" y2="308" stroke="#8a6aa8" stroke-width="1.5" marker-end="url(#ar)"/>
  <line x1="352" y1="308" x2="328" y2="308" stroke="#5bb545" stroke-width="1.5" marker-end="url(#ar)"/>
  <text x="340" y="300" font-size="11" fill="#3d6b1f" text-anchor="middle">pass</text>
  <line x1="196" y1="308" x2="172" y2="308" stroke="#8a6aa8" stroke-width="1.5" marker-end="url(#ar)"/>

  <rect x="40" y="362" width="600" height="74" rx="12" fill="#c7e3b1" stroke="#5bb545" stroke-width="1.5"/>
  <text x="64" y="388" font-size="14" font-weight="600" fill="#4a0873">Model selection &#8212; the gate</text>
  <text x="64" y="408" font-size="12" fill="#4a0873">Granite classifies and verifies &#183; frontier sees and writes &#183; Python calculates</text>
  <text x="64" y="426" font-size="12" fill="#3d2a52">a small local model as the discipline membrane inside a frontier creative system</text>

  <rect x="64" y="456" width="14" height="14" rx="3" fill="#FCE3CE" stroke="#f5841f" stroke-width="0.75"/>
  <text x="84" y="467" font-size="12" fill="#4a0873">Frontier (Claude): vision + prose</text>
  <rect x="300" y="456" width="14" height="14" rx="3" fill="#ECE0F5" stroke="#4a0873" stroke-width="0.75"/>
  <text x="320" y="467" font-size="12" fill="#4a0873">Local (granite4:micro): classify + QC</text>

  <rect x="64" y="482" width="14" height="14" rx="3" fill="#DCEFCF" stroke="#5bb545" stroke-width="0.75"/>
  <text x="84" y="493" font-size="12" fill="#4a0873">Python: exact math</text>
  <rect x="300" y="482" width="14" height="14" rx="3" fill="#c7e3b1" stroke="#5bb545" stroke-width="1.5"/>
  <text x="320" y="493" font-size="12" fill="#4a0873">Field-guide page (the yes verdict)</text>

  <rect x="64" y="508" width="14" height="14" rx="3" fill="#F2EEE4" stroke="#4a0873" stroke-width="0.75"/>
  <text x="84" y="519" font-size="12" fill="#4a0873">Structure / data</text>
  <line x1="300" y1="515" x2="314" y2="515" stroke="#f5841f" stroke-width="1.5" stroke-dasharray="4 3"/>
  <text x="320" y="519" font-size="12" fill="#4a0873">Adjudication loop (route_to, &#8804;2)</text>
</svg>
